<svg xmlns="http://www.w3.org/2000/svg" xmlns:xlink="http://www.w3.org/1999/xlink" width="250" zoomAndPan="magnify" viewBox="0 0 187.5 74.999997" height="100" preserveAspectRatio="xMidYMid meet" version="1.0"><defs><g/><clipPath id="b45ad59158"><rect x="0" width="84" y="0" height="31"/></clipPath><clipPath id="adbab7be8b"><rect x="0" width="146" y="0" height="31"/></clipPath></defs><g transform="matrix(1, 0, 0, 1, 52, 8)"><g clip-path="url(#b45ad59158)"><g fill="#ffffff" fill-opacity="1"><g transform="translate(0.47349, 22.601445)"><g><path d="M 2.484375 -16.890625 L 10.1875 -16.890625 C 11.957031 -16.890625 13.492188 -16.65625 14.796875 -16.1875 C 16.097656 -15.726562 17.148438 -14.941406 17.953125 -13.828125 C 18.765625 -12.722656 19.171875 -11.34375 19.171875 -9.6875 L 19.171875 -7.21875 C 19.171875 -4.644531 18.300781 -2.769531 16.5625 -1.59375 C 14.96875 -0.53125 12.84375 0 10.1875 0 L 2.484375 0 C 2.304688 0 2.148438 -0.0625 2.015625 -0.1875 C 1.890625 -0.320312 1.828125 -0.476562 1.828125 -0.65625 L 1.828125 -16.25 C 1.828125 -16.425781 1.890625 -16.578125 2.015625 -16.703125 C 2.148438 -16.828125 2.304688 -16.890625 2.484375 -16.890625 Z M 8.109375 -12.1875 L 8.109375 -4.703125 L 10.3125 -4.703125 C 11.0625 -4.703125 11.65625 -4.882812 12.09375 -5.25 C 12.539062 -5.613281 12.765625 -6.125 12.765625 -6.78125 L 12.765625 -10.109375 C 12.765625 -10.773438 12.539062 -11.285156 12.09375 -11.640625 C 11.65625 -12.003906 11.0625 -12.1875 10.3125 -12.1875 Z M 8.109375 -12.1875 "/></g></g></g><g fill="#ffffff" fill-opacity="1"><g transform="translate(20.98131, 22.601445)"><g><path d="M 19.234375 -9.921875 L 19.234375 -6.984375 C 19.234375 -5.316406 18.832031 -3.925781 18.03125 -2.8125 C 17.226562 -1.707031 16.175781 -0.921875 14.875 -0.453125 C 13.570312 0.00390625 12.035156 0.234375 10.265625 0.234375 C 8.492188 0.234375 6.953125 0.00390625 5.640625 -0.453125 C 4.335938 -0.921875 3.285156 -1.707031 2.484375 -2.8125 C 1.679688 -3.925781 1.28125 -5.332031 1.28125 -7.03125 L 1.28125 -9.875 C 1.28125 -12.300781 2.113281 -14.117188 3.78125 -15.328125 C 5.445312 -16.535156 7.609375 -17.140625 10.265625 -17.140625 C 12.921875 -17.140625 15.078125 -16.535156 16.734375 -15.328125 C 18.398438 -14.117188 19.234375 -12.316406 19.234375 -9.921875 Z M 7.796875 -10.375 L 7.796875 -6.515625 C 7.796875 -5.859375 8.015625 -5.351562 8.453125 -5 C 8.898438 -4.644531 9.5 -4.46875 10.25 -4.46875 C 11.007812 -4.46875 11.609375 -4.644531 12.046875 -5 C 12.492188 -5.363281 12.71875 -5.878906 12.71875 -6.546875 L 12.71875 -10.359375 C 12.71875 -11.015625 12.492188 -11.523438 12.046875 -11.890625 C 11.609375 -12.253906 11.007812 -12.4375 10.25 -12.4375 C 9.5 -12.4375 8.898438 -12.257812 8.453125 -11.90625 C 8.015625 -11.550781 7.796875 -11.039062 7.796875 -10.375 Z M 7.796875 -10.375 "/></g></g></g><g fill="#ffffff" fill-opacity="1"><g transform="translate(41.48913, 22.601445)"><g><path d="M 13.328125 -16.890625 L 17.8125 -16.890625 C 17.988281 -16.890625 18.140625 -16.828125 18.265625 -16.703125 C 18.398438 -16.578125 18.46875 -16.425781 18.46875 -16.25 L 18.46875 -0.65625 C 18.46875 -0.476562 18.398438 -0.320312 18.265625 -0.1875 C 18.140625 -0.0625 17.988281 0 17.8125 0 L 13.921875 0 C 13.535156 0 13.21875 -0.164062 12.96875 -0.5 L 7.703125 -7.21875 L 7.703125 -0.65625 C 7.703125 -0.476562 7.632812 -0.320312 7.5 -0.1875 C 7.375 -0.0625 7.222656 0 7.046875 0 L 2.5625 0 C 2.382812 0 2.226562 -0.0625 2.09375 -0.1875 C 1.96875 -0.320312 1.90625 -0.476562 1.90625 -0.65625 L 1.90625 -16.25 C 1.90625 -16.425781 1.96875 -16.578125 2.09375 -16.703125 C 2.226562 -16.828125 2.382812 -16.890625 2.5625 -16.890625 L 6.46875 -16.890625 C 6.851562 -16.890625 7.164062 -16.734375 7.40625 -16.421875 L 12.671875 -9.15625 L 12.671875 -16.25 C 12.671875 -16.425781 12.734375 -16.578125 12.859375 -16.703125 C 12.992188 -16.828125 13.148438 -16.890625 13.328125 -16.890625 Z M 13.328125 -16.890625 "/></g></g></g><g fill="#ffffff" fill-opacity="1"><g transform="translate(61.996949, 22.601445)"><g><path d="M 5.703125 0 L 1.140625 0 C 0.992188 0 0.867188 -0.0507812 0.765625 -0.15625 C 0.660156 -0.257812 0.609375 -0.359375 0.609375 -0.453125 C 0.609375 -0.554688 0.613281 -0.628906 0.625 -0.671875 L 5.890625 -16.109375 C 6.035156 -16.628906 6.398438 -16.890625 6.984375 -16.890625 L 13.6875 -16.890625 C 14.269531 -16.890625 14.632812 -16.628906 14.78125 -16.109375 L 20.03125 -0.671875 C 20.050781 -0.628906 20.0625 -0.554688 20.0625 -0.453125 C 20.0625 -0.359375 20.007812 -0.257812 19.90625 -0.15625 C 19.800781 -0.0507812 19.675781 0 19.53125 0 L 14.96875 0 C 14.445312 0 14.082031 -0.273438 13.875 -0.828125 L 13.28125 -2.515625 L 7.390625 -2.515625 L 6.78125 -0.828125 C 6.570312 -0.273438 6.210938 0 5.703125 0 Z M 12.046875 -7.21875 L 10.328125 -12.234375 L 8.625 -7.21875 Z M 12.046875 -7.21875 "/></g></g></g></g></g><g transform="matrix(1, 0, 0, 1, 21, 36)"><g clip-path="url(#adbab7be8b)"><g fill="#069c4f" fill-opacity="1"><g transform="translate(0.714011, 23.299527)"><g><path d="M 1.9375 -16.890625 L 18.59375 -16.890625 C 18.769531 -16.890625 18.921875 -16.828125 19.046875 -16.703125 C 19.171875 -16.578125 19.234375 -16.425781 19.234375 -16.25 L 19.234375 -12.359375 C 19.234375 -12.179688 19.171875 -12.023438 19.046875 -11.890625 C 18.921875 -11.765625 18.769531 -11.703125 18.59375 -11.703125 L 13.390625 -11.703125 L 13.390625 -0.65625 C 13.390625 -0.476562 13.328125 -0.320312 13.203125 -0.1875 C 13.078125 -0.0625 12.925781 0 12.75 0 L 7.765625 0 C 7.585938 0 7.4375 -0.0625 7.3125 -0.1875 C 7.1875 -0.320312 7.125 -0.476562 7.125 -0.65625 L 7.125 -11.703125 L 1.9375 -11.703125 C 1.757812 -11.703125 1.601562 -11.765625 1.46875 -11.890625 C 1.34375 -12.023438 1.28125 -12.179688 1.28125 -12.359375 L 1.28125 -16.25 C 1.28125 -16.425781 1.34375 -16.578125 1.46875 -16.703125 C 1.601562 -16.828125 1.757812 -16.890625 1.9375 -16.890625 Z M 1.9375 -16.890625 "/></g></g></g><g fill="#069c4f" fill-opacity="1"><g transform="translate(21.221831, 23.299527)"><g><path d="M 19.84375 -0.75 C 19.875 -0.6875 19.890625 -0.597656 19.890625 -0.484375 C 19.890625 -0.367188 19.835938 -0.257812 19.734375 -0.15625 C 19.628906 -0.0507812 19.503906 0 19.359375 0 L 13.875 0 C 13.394531 0 13.054688 -0.203125 12.859375 -0.609375 L 10.75 -5.390625 L 8.71875 -5.390625 L 8.71875 -0.65625 C 8.71875 -0.476562 8.648438 -0.320312 8.515625 -0.1875 C 8.390625 -0.0625 8.238281 0 8.0625 0 L 2.84375 0 C 2.664062 0 2.515625 -0.0625 2.390625 -0.1875 C 2.265625 -0.320312 2.203125 -0.476562 2.203125 -0.65625 L 2.203125 -16.25 C 2.203125 -16.425781 2.265625 -16.578125 2.390625 -16.703125 C 2.515625 -16.828125 2.664062 -16.890625 2.84375 -16.890625 L 12.234375 -16.890625 C 14.441406 -16.890625 16.1875 -16.367188 17.46875 -15.328125 C 18.757812 -14.285156 19.40625 -12.863281 19.40625 -11.0625 C 19.40625 -8.863281 18.5625 -7.273438 16.875 -6.296875 Z M 8.71875 -12.40625 L 8.71875 -9.84375 L 11.734375 -9.84375 C 12.085938 -9.84375 12.359375 -9.957031 12.546875 -10.1875 C 12.742188 -10.425781 12.84375 -10.722656 12.84375 -11.078125 C 12.84375 -11.429688 12.75 -11.738281 12.5625 -12 C 12.375 -12.269531 12.097656 -12.40625 11.734375 -12.40625 Z M 8.71875 -12.40625 "/></g></g></g><g fill="#069c4f" fill-opacity="1"><g transform="translate(41.729651, 23.299527)"><g><path d="M 5.703125 0 L 1.140625 0 C 0.992188 0 0.867188 -0.0507812 0.765625 -0.15625 C 0.660156 -0.257812 0.609375 -0.359375 0.609375 -0.453125 C 0.609375 -0.554688 0.613281 -0.628906 0.625 -0.671875 L 5.890625 -16.109375 C 6.035156 -16.628906 6.398438 -16.890625 6.984375 -16.890625 L 13.6875 -16.890625 C 14.269531 -16.890625 14.632812 -16.628906 14.78125 -16.109375 L 20.03125 -0.671875 C 20.050781 -0.628906 20.0625 -0.554688 20.0625 -0.453125 C 20.0625 -0.359375 20.007812 -0.257812 19.90625 -0.15625 C 19.800781 -0.0507812 19.675781 0 19.53125 0 L 14.96875 0 C 14.445312 0 14.082031 -0.273438 13.875 -0.828125 L 13.28125 -2.515625 L 7.390625 -2.515625 L 6.78125 -0.828125 C 6.570312 -0.273438 6.210938 0 5.703125 0 Z M 12.046875 -7.21875 L 10.328125 -12.234375 L 8.625 -7.21875 Z M 12.046875 -7.21875 "/></g></g></g><g fill="#069c4f" fill-opacity="1"><g transform="translate(62.237471, 23.299527)"><g><path d="M 17.90625 -11.953125 L 13.546875 -11.953125 L 13.546875 -4.953125 L 17.90625 -4.953125 C 18.082031 -4.953125 18.234375 -4.882812 18.359375 -4.75 C 18.492188 -4.625 18.5625 -4.472656 18.5625 -4.296875 L 18.5625 -0.65625 C 18.5625 -0.476562 18.492188 -0.320312 18.359375 -0.1875 C 18.234375 -0.0625 18.082031 0 17.90625 0 L 2.609375 0 C 2.429688 0 2.273438 -0.0625 2.140625 -0.1875 C 2.015625 -0.320312 1.953125 -0.476562 1.953125 -0.65625 L 1.953125 -4.296875 C 1.953125 -4.472656 2.015625 -4.625 2.140625 -4.75 C 2.273438 -4.882812 2.429688 -4.953125 2.609375 -4.953125 L 7.03125 -4.953125 L 7.03125 -11.953125 L 2.609375 -11.953125 C 2.429688 -11.953125 2.273438 -12.015625 2.140625 -12.140625 C 2.015625 -12.265625 1.953125 -12.414062 1.953125 -12.59375 L 1.953125 -16.25 C 1.953125 -16.425781 2.015625 -16.578125 2.140625 -16.703125 C 2.273438 -16.828125 2.429688 -16.890625 2.609375 -16.890625 L 17.90625 -16.890625 C 18.082031 -16.890625 18.234375 -16.828125 18.359375 -16.703125 C 18.492188 -16.578125 18.5625 -16.425781 18.5625 -16.25 L 18.5625 -12.59375 C 18.5625 -12.414062 18.492188 -12.265625 18.359375 -12.140625 C 18.234375 -12.015625 18.082031 -11.953125 17.90625 -11.953125 Z M 17.90625 -11.953125 "/></g></g></g><g fill="#069c4f" fill-opacity="1"><g transform="translate(82.745291, 23.299527)"><g><path d="M 13.328125 -16.890625 L 17.8125 -16.890625 C 17.988281 -16.890625 18.140625 -16.828125 18.265625 -16.703125 C 18.398438 -16.578125 18.46875 -16.425781 18.46875 -16.25 L 18.46875 -0.65625 C 18.46875 -0.476562 18.398438 -0.320312 18.265625 -0.1875 C 18.140625 -0.0625 17.988281 0 17.8125 0 L 13.921875 0 C 13.535156 0 13.21875 -0.164062 12.96875 -0.5 L 7.703125 -7.21875 L 7.703125 -0.65625 C 7.703125 -0.476562 7.632812 -0.320312 7.5 -0.1875 C 7.375 -0.0625 7.222656 0 7.046875 0 L 2.5625 0 C 2.382812 0 2.226562 -0.0625 2.09375 -0.1875 C 1.96875 -0.320312 1.90625 -0.476562 1.90625 -0.65625 L 1.90625 -16.25 C 1.90625 -16.425781 1.96875 -16.578125 2.09375 -16.703125 C 2.226562 -16.828125 2.382812 -16.890625 2.5625 -16.890625 L 6.46875 -16.890625 C 6.851562 -16.890625 7.164062 -16.734375 7.40625 -16.421875 L 12.671875 -9.15625 L 12.671875 -16.25 C 12.671875 -16.425781 12.734375 -16.578125 12.859375 -16.703125 C 12.992188 -16.828125 13.148438 -16.890625 13.328125 -16.890625 Z M 13.328125 -16.890625 "/></g></g></g><g fill="#069c4f" fill-opacity="1"><g transform="translate(103.253111, 23.299527)"><g><path d="M 8.453125 -4.703125 L 18.078125 -4.703125 C 18.253906 -4.703125 18.40625 -4.640625 18.53125 -4.515625 C 18.664062 -4.390625 18.734375 -4.238281 18.734375 -4.0625 L 18.734375 -0.65625 C 18.734375 -0.476562 18.664062 -0.320312 18.53125 -0.1875 C 18.40625 -0.0625 18.253906 0 18.078125 0 L 2.828125 0 C 2.648438 0 2.492188 -0.0625 2.359375 -0.1875 C 2.234375 -0.320312 2.171875 -0.476562 2.171875 -0.65625 L 2.171875 -16.25 C 2.171875 -16.425781 2.234375 -16.578125 2.359375 -16.703125 C 2.492188 -16.828125 2.648438 -16.890625 2.828125 -16.890625 L 17.84375 -16.890625 C 18.019531 -16.890625 18.171875 -16.828125 18.296875 -16.703125 C 18.421875 -16.578125 18.484375 -16.425781 18.484375 -16.25 L 18.484375 -12.84375 C 18.484375 -12.664062 18.421875 -12.507812 18.296875 -12.375 C 18.171875 -12.25 18.019531 -12.1875 17.84375 -12.1875 L 8.453125 -12.1875 L 8.453125 -10.671875 L 16.515625 -10.671875 C 16.691406 -10.671875 16.84375 -10.601562 16.96875 -10.46875 C 17.09375 -10.34375 17.15625 -10.191406 17.15625 -10.015625 L 17.15625 -6.875 C 17.15625 -6.695312 17.09375 -6.546875 16.96875 -6.421875 C 16.84375 -6.296875 16.691406 -6.234375 16.515625 -6.234375 L 8.453125 -6.234375 Z M 8.453125 -4.703125 "/></g></g></g><g fill="#069c4f" fill-opacity="1"><g transform="translate(123.760931, 23.299527)"><g><path d="M 19.84375 -0.75 C 19.875 -0.6875 19.890625 -0.597656 19.890625 -0.484375 C 19.890625 -0.367188 19.835938 -0.257812 19.734375 -0.15625 C 19.628906 -0.0507812 19.503906 0 19.359375 0 L 13.875 0 C 13.394531 0 13.054688 -0.203125 12.859375 -0.609375 L 10.75 -5.390625 L 8.71875 -5.390625 L 8.71875 -0.65625 C 8.71875 -0.476562 8.648438 -0.320312 8.515625 -0.1875 C 8.390625 -0.0625 8.238281 0 8.0625 0 L 2.84375 0 C 2.664062 0 2.515625 -0.0625 2.390625 -0.1875 C 2.265625 -0.320312 2.203125 -0.476562 2.203125 -0.65625 L 2.203125 -16.25 C 2.203125 -16.425781 2.265625 -16.578125 2.390625 -16.703125 C 2.515625 -16.828125 2.664062 -16.890625 2.84375 -16.890625 L 12.234375 -16.890625 C 14.441406 -16.890625 16.1875 -16.367188 17.46875 -15.328125 C 18.757812 -14.285156 19.40625 -12.863281 19.40625 -11.0625 C 19.40625 -8.863281 18.5625 -7.273438 16.875 -6.296875 Z M 8.71875 -12.40625 L 8.71875 -9.84375 L 11.734375 -9.84375 C 12.085938 -9.84375 12.359375 -9.957031 12.546875 -10.1875 C 12.742188 -10.425781 12.84375 -10.722656 12.84375 -11.078125 C 12.84375 -11.429688 12.75 -11.738281 12.5625 -12 C 12.375 -12.269531 12.097656 -12.40625 11.734375 -12.40625 Z M 8.71875 -12.40625 "/></g></g></g></g></g></svg>